<svg xmlns="http://www.w3.org/2000/svg" xmlns:xlink="http://www.w3.org/1999/xlink" width="1000" zoomAndPan="magnify" viewBox="0 0 750 149.999998" height="200" preserveAspectRatio="xMidYMid meet" version="1.2"><defs><clipPath id="f4acf2c901"><rect x="0" width="750" y="0" height="133"/></clipPath></defs><g id="d64c255b0b"><g transform="matrix(1,0,0,1,0,13)"><g clip-path="url(#f4acf2c901)"><g style="fill:#000000;fill-opacity:1;"><g transform="translate(-3.995954, 100.941238)"><path style="stroke:none" d="M 75.671875 4.078125 C 80.304688 3.710938 84.984375 3.578125 89.703125 3.671875 C 94.421875 3.765625 99.613281 4.0625 105.28125 4.5625 C 110.945312 5.0625 117.367188 5.8125 124.546875 6.8125 L 124.546875 25.859375 C 115.191406 24.585938 106.566406 23.679688 98.671875 23.140625 C 90.785156 22.597656 83.210938 22.367188 75.953125 22.453125 C 68.691406 22.546875 61.335938 22.929688 53.890625 23.609375 C 46.453125 24.296875 38.46875 25.273438 29.9375 26.546875 L 28.171875 8.84375 C 32.796875 8.394531 37.898438 7.851562 43.484375 7.21875 C 49.066406 6.582031 54.710938 5.5625 60.421875 4.15625 C 66.140625 2.75 71.453125 0.679688 76.359375 -2.046875 L 73.359375 -6.9375 C 70.910156 -4.945312 67.894531 -3.289062 64.3125 -1.96875 C 60.726562 -0.65625 55.710938 0 49.265625 0 C 43.640625 0 38.265625 -1.109375 33.140625 -3.328125 C 28.015625 -5.554688 23.476562 -8.78125 19.53125 -13 C 15.582031 -17.21875 12.472656 -22.273438 10.203125 -28.171875 C 7.941406 -34.066406 6.8125 -40.691406 6.8125 -48.046875 C 6.8125 -55.035156 7.988281 -61.523438 10.34375 -67.515625 C 12.707031 -73.503906 16.109375 -78.71875 20.546875 -83.15625 C 24.992188 -87.601562 30.300781 -91.070312 36.46875 -93.5625 C 42.644531 -96.0625 49.546875 -97.3125 57.171875 -97.3125 C 67.328125 -97.3125 76.148438 -95.25 83.640625 -91.125 C 91.128906 -87 96.957031 -81.238281 101.125 -73.84375 C 105.300781 -66.445312 107.390625 -57.847656 107.390625 -48.046875 C 107.390625 -38.972656 105.867188 -31.078125 102.828125 -24.359375 C 99.785156 -17.648438 95.859375 -11.976562 91.046875 -7.34375 C 86.242188 -2.71875 81.117188 1.085938 75.671875 4.078125 Z M 57.171875 -17.6875 C 66.242188 -17.6875 73.25 -20.429688 78.1875 -25.921875 C 83.132812 -31.410156 85.609375 -38.785156 85.609375 -48.046875 C 85.609375 -57.210938 83.132812 -64.539062 78.1875 -70.03125 C 73.25 -75.519531 66.242188 -78.265625 57.171875 -78.265625 C 48.097656 -78.265625 41.0625 -75.519531 36.0625 -70.03125 C 31.070312 -64.539062 28.578125 -57.210938 28.578125 -48.046875 C 28.578125 -38.785156 31.070312 -31.410156 36.0625 -25.921875 C 41.0625 -20.429688 48.097656 -17.6875 57.171875 -17.6875 Z M 57.171875 -17.6875 "/></g></g><g style="fill:#000000;fill-opacity:1;"><g transform="translate(108.288639, 100.941238)"><path style="stroke:none" d="M 5.4375 -35.65625 L 5.4375 -95.953125 L 27.21875 -95.953125 L 27.21875 -45.328125 C 27.21875 -41.054688 27.421875 -37.21875 27.828125 -33.8125 C 28.242188 -30.414062 29.128906 -27.515625 30.484375 -25.109375 C 31.847656 -22.703125 33.976562 -20.863281 36.875 -19.59375 C 39.78125 -18.320312 43.734375 -17.6875 48.734375 -17.6875 C 55.441406 -17.6875 60.316406 -18.796875 63.359375 -21.015625 C 66.398438 -23.242188 68.328125 -26.421875 69.140625 -30.546875 C 69.960938 -34.679688 70.375 -39.609375 70.375 -45.328125 L 70.375 -95.953125 L 92.140625 -95.953125 L 92.140625 -35.65625 C 92.140625 -23.675781 88.460938 -14.507812 81.109375 -8.15625 C 73.765625 -1.8125 62.972656 1.359375 48.734375 1.359375 C 34.484375 1.359375 23.703125 -1.8125 16.390625 -8.15625 C 9.085938 -14.507812 5.4375 -23.675781 5.4375 -35.65625 Z M 5.4375 -35.65625 "/></g></g><g style="fill:#000000;fill-opacity:1;"><g transform="translate(203.152029, 100.941238)"><path style="stroke:none" d="M 72.140625 -95.953125 L 72.140625 -76.90625 L 50.359375 -76.90625 L 50.359375 -19.0625 L 72.140625 -19.0625 L 72.140625 0 L 6.8125 0 L 6.8125 -19.0625 L 28.578125 -19.0625 L 28.578125 -76.90625 L 6.8125 -76.90625 L 6.8125 -95.953125 Z M 72.140625 -95.953125 "/></g></g><g style="fill:#000000;fill-opacity:1;"><g transform="translate(280.73047, 100.941238)"><path style="stroke:none" d="M 85.34375 -95.953125 L 85.34375 -58.9375 L 24.5 -23.546875 L 24.5 -19.0625 L 85.34375 -19.0625 L 85.34375 0 L 5.4375 0 L 5.4375 -36.0625 L 66.28125 -71.453125 L 66.28125 -76.90625 L 5.4375 -76.90625 L 5.4375 -95.953125 Z M 85.34375 -95.953125 "/></g></g><g style="fill:#0fa4e9;fill-opacity:1;"><g transform="translate(370.162743, 100.941238)"><path style="stroke:none" d="M 76.625 0 L 19.875 1.359375 C 16.15625 1.453125 13.273438 0.503906 11.234375 -1.484375 C 9.191406 -3.484375 8.171875 -6.347656 8.171875 -10.078125 L 8.171875 -95.953125 L 29.9375 -95.953125 L 29.9375 -17.6875 L 76.625 -19.0625 Z M 76.625 0 "/></g></g><g style="fill:#0fa4e9;fill-opacity:1;"><g transform="translate(449.510557, 100.941238)"><path style="stroke:none" d="M 72.140625 -95.953125 L 72.140625 -76.90625 L 50.359375 -76.90625 L 50.359375 -19.0625 L 72.140625 -19.0625 L 72.140625 0 L 6.8125 0 L 6.8125 -19.0625 L 28.578125 -19.0625 L 28.578125 -76.90625 L 6.8125 -76.90625 L 6.8125 -95.953125 Z M 72.140625 -95.953125 "/></g></g><g style="fill:#0fa4e9;fill-opacity:1;"><g transform="translate(525.727897, 100.941238)"><path style="stroke:none" d="M 81.390625 -19.0625 L 81.390625 -95.953125 L 103.171875 -95.953125 L 103.171875 0 L 60.296875 0 L 36.0625 -76.90625 L 29.9375 -76.90625 L 29.9375 0 L 8.171875 0 L 8.171875 -95.953125 L 51.046875 -95.953125 L 75.265625 -19.0625 Z M 81.390625 -19.0625 "/></g></g><g style="fill:#0fa4e9;fill-opacity:1;"><g transform="translate(632.976571, 100.941238)"><path style="stroke:none" d="M 6.8125 -48.046875 C 6.8125 -57.847656 8.921875 -66.445312 13.140625 -73.84375 C 17.359375 -81.238281 23.09375 -87 30.34375 -91.125 C 37.601562 -95.25 45.863281 -97.3125 55.125 -97.3125 C 63.195312 -97.3125 70.5 -95.789062 77.03125 -92.75 C 83.570312 -89.71875 88.925781 -85.523438 93.09375 -80.171875 C 97.269531 -74.816406 99.8125 -68.644531 100.71875 -61.65625 L 78.9375 -61.65625 C 77.851562 -67.28125 75.425781 -71.453125 71.65625 -74.171875 C 67.894531 -76.898438 62.382812 -78.265625 55.125 -78.265625 C 46.78125 -78.265625 40.269531 -75.859375 35.59375 -71.046875 C 30.914062 -66.234375 28.578125 -58.566406 28.578125 -48.046875 C 28.578125 -37.429688 30.523438 -29.71875 34.421875 -24.90625 C 38.328125 -20.09375 44.226562 -17.6875 52.125 -17.6875 C 58.664062 -17.6875 63.835938 -19.320312 67.640625 -22.59375 C 71.453125 -25.863281 73.359375 -30.71875 73.359375 -37.15625 L 51.171875 -37.15625 L 51.171875 -53.484375 L 101.265625 -53.484375 C 108.972656 -53.484375 112.828125 -49.628906 112.828125 -41.921875 L 112.828125 0 L 91.0625 0 L 91.0625 -33.078125 L 95.140625 -48.046875 L 89.703125 -48.046875 C 89.703125 -37.972656 88.316406 -29.238281 85.546875 -21.84375 C 82.773438 -14.445312 78.578125 -8.726562 72.953125 -4.6875 C 67.328125 -0.65625 60.113281 1.359375 51.3125 1.359375 C 41.78125 1.359375 33.703125 -0.722656 27.078125 -4.890625 C 20.460938 -9.066406 15.429688 -14.851562 11.984375 -22.25 C 8.535156 -29.644531 6.8125 -38.242188 6.8125 -48.046875 Z M 6.8125 -48.046875 "/></g></g></g></g></g></svg>