<svg xmlns="http://www.w3.org/2000/svg" xmlns:xlink="http://www.w3.org/1999/xlink" zoomAndPan="magnify" preserveAspectRatio="xMidYMid meet" version="1.2" viewBox="113.68 0.7 481.4 146.6"><defs><clipPath id="37bec24b82"><rect x="0" width="487" y="0" height="150"/></clipPath></defs><g id="530ecf7aee"><g transform="matrix(1,0,0,1,110,-0.000000000000007527)"><g clip-path="url(#37bec24b82)"><g style="fill:#000000;fill-opacity:1;"><g transform="translate(1.499915, 100.771014)"><path style="stroke:none" d="M 79.9375 -58.28125 C 79.863281 -49.476562 78.671875 -41.6875 76.359375 -34.90625 C 74.054688 -28.125 70.703125 -22.28125 66.296875 -17.375 C 68.054688 -8.28125 68.71875 1.796875 68.28125 12.859375 C 67.84375 23.929688 66.78125 35.148438 65.09375 46.515625 L 47.609375 46.515625 C 49.078125 38.816406 50.046875 31.0625 50.515625 23.25 C 50.992188 15.445312 50.941406 8.023438 50.359375 0.984375 C 49.773438 -6.046875 48.640625 -12.328125 46.953125 -17.859375 C 45.265625 -23.398438 43.007812 -27.765625 40.1875 -30.953125 C 37.363281 -34.140625 33.9375 -35.734375 29.90625 -35.734375 C 26.75 -35.734375 24.203125 -34.890625 22.265625 -33.203125 C 20.328125 -31.515625 19.359375 -29.28125 19.359375 -26.5 C 19.359375 -23.789062 20.328125 -21.570312 22.265625 -19.84375 C 24.203125 -18.125 26.75 -17.265625 29.90625 -17.265625 C 34.007812 -17.265625 38.148438 -18.582031 42.328125 -21.21875 C 43.359375 -18.875 44.203125 -16.125 44.859375 -12.96875 C 45.515625 -9.820312 45.957031 -6.707031 46.1875 -3.625 C 39.800781 -1.132812 34.191406 0.109375 29.359375 0.109375 C 24.148438 0.109375 19.492188 -1.078125 15.390625 -3.453125 C 11.285156 -5.835938 8.0625 -9.007812 5.71875 -12.96875 C 3.375 -16.925781 2.203125 -21.179688 2.203125 -25.734375 C 2.203125 -29.171875 2.894531 -32.519531 4.28125 -35.78125 C 5.675781 -39.050781 7.617188 -41.984375 10.109375 -44.578125 C 12.609375 -47.179688 15.523438 -49.253906 18.859375 -50.796875 C 22.191406 -52.335938 25.800781 -53.109375 29.6875 -53.109375 C 36.0625 -53.109375 41.539062 -51.914062 46.125 -49.53125 C 50.707031 -47.144531 54.535156 -43.789062 57.609375 -39.46875 C 58.421875 -42.476562 58.789062 -45.628906 58.71875 -48.921875 C 58.644531 -52.222656 58.644531 -55.34375 58.71875 -58.28125 Z M 79.9375 -58.28125 "/></g></g><g style="fill:#000000;fill-opacity:1;"><g transform="translate(79.231476, 100.771014)"><path style="stroke:none" d="M 66.625 -48.703125 C 63.550781 -42.179688 61.921875 -35.085938 61.734375 -27.421875 C 61.554688 -19.765625 63.003906 -11.429688 66.078125 -2.421875 L 49.046875 -2.421875 C 48.304688 -4.546875 47.625 -6.613281 47 -8.625 C 46.382812 -10.644531 45.816406 -12.609375 45.296875 -14.515625 C 42.953125 -10.847656 39.632812 -7.804688 35.34375 -5.390625 C 31.0625 -2.972656 25.507812 -1.835938 18.6875 -1.984375 C 13.488281 -1.984375 9.550781 -3.410156 6.875 -6.265625 C 4.195312 -9.128906 2.675781 -12.976562 2.3125 -17.8125 C 1.945312 -22.644531 2.585938 -28.007812 4.234375 -33.90625 C 5.878906 -39.8125 8.390625 -45.769531 11.765625 -51.78125 L 33.859375 -51.78125 C 31.515625 -47.894531 29.40625 -43.953125 27.53125 -39.953125 C 25.664062 -35.960938 24.347656 -32.316406 23.578125 -29.015625 C 22.816406 -25.722656 22.800781 -23.066406 23.53125 -21.046875 C 24.257812 -19.035156 26.054688 -18.03125 28.921875 -18.03125 C 32.441406 -18.03125 35.375 -18.984375 37.71875 -20.890625 C 40.0625 -22.796875 41.707031 -25.210938 42.65625 -28.140625 C 42.363281 -31.585938 42.328125 -35.015625 42.546875 -38.421875 C 42.765625 -41.835938 43.351562 -45.265625 44.3125 -48.703125 Z M 66.625 -48.703125 "/></g></g><g style="fill:#000000;fill-opacity:1;"><g transform="translate(145.858525, 100.771014)"><path style="stroke:none" d="M 20.234375 -58.0625 C 17.960938 -58.0625 15.890625 -58.628906 14.015625 -59.765625 C 12.148438 -60.898438 10.648438 -62.421875 9.515625 -64.328125 C 8.378906 -66.234375 7.8125 -68.320312 7.8125 -70.59375 C 7.8125 -72.9375 8.378906 -75.039062 9.515625 -76.90625 C 10.648438 -78.78125 12.148438 -80.285156 14.015625 -81.421875 C 15.890625 -82.554688 17.960938 -83.125 20.234375 -83.125 C 22.578125 -83.125 24.679688 -82.554688 26.546875 -81.421875 C 28.421875 -80.285156 29.925781 -78.78125 31.0625 -76.90625 C 32.195312 -75.039062 32.765625 -72.9375 32.765625 -70.59375 C 32.765625 -68.320312 32.195312 -66.234375 31.0625 -64.328125 C 29.925781 -62.421875 28.421875 -60.898438 26.546875 -59.765625 C 24.679688 -58.628906 22.578125 -58.0625 20.234375 -58.0625 Z M 5.390625 -6.8125 C 4.359375 -13.5625 3.894531 -20.363281 4 -27.21875 C 4.113281 -34.070312 4.613281 -41.640625 5.5 -49.921875 L 22.546875 -49.921875 C 21.734375 -41.492188 21.726562 -33.773438 22.53125 -26.765625 C 23.34375 -19.765625 24.738281 -13.113281 26.71875 -6.8125 Z M 5.390625 -6.8125 "/></g></g><g style="fill:#000000;fill-opacity:1;"><g transform="translate(173.674763, 100.771014)"><path style="stroke:none" d="M -0.984375 -51.5625 C 1.796875 -52.375 5.203125 -52.867188 9.234375 -53.046875 C 13.265625 -53.234375 17.535156 -53.050781 22.046875 -52.5 C 26.554688 -51.945312 30.914062 -51.03125 35.125 -49.75 C 39.34375 -48.46875 43.097656 -46.835938 46.390625 -44.859375 C 49.691406 -42.878906 52.113281 -40.5 53.65625 -37.71875 C 52.632812 -33.3125 49.59375 -28.632812 44.53125 -23.6875 C 39.46875 -18.738281 33.128906 -13.882812 25.515625 -9.125 C 27.640625 -7.4375 29.726562 -6.003906 31.78125 -4.828125 C 33.832031 -3.660156 36.101562 -2.691406 38.59375 -1.921875 C 41.082031 -1.148438 44.03125 -0.472656 47.4375 0.109375 C 50.851562 0.691406 54.976562 1.28125 59.8125 1.875 L 59.8125 29.90625 C 54.457031 29.25 48.976562 27.859375 43.375 25.734375 C 37.769531 23.609375 32.382812 21.039062 27.21875 18.03125 C 22.050781 15.03125 17.410156 11.785156 13.296875 8.296875 C 9.191406 4.816406 5.859375 1.375 3.296875 -2.03125 C 0.734375 -5.4375 -0.691406 -8.570312 -0.984375 -11.4375 C 6.335938 -15.90625 12.566406 -19.9375 17.703125 -23.53125 C 22.835938 -27.125 26.316406 -29.945312 28.140625 -32 C 24.773438 -33.6875 21.054688 -34.363281 16.984375 -34.03125 C 12.921875 -33.695312 8.429688 -33.019531 3.515625 -32 Z M -0.984375 -51.5625 "/></g></g><g style="fill:#ffc107;fill-opacity:1;"><g transform="translate(227.996593, 100.771014)"><path style="stroke:none" d="M 68.9375 -70.484375 C 68.9375 -67.617188 68.382812 -64.222656 67.28125 -60.296875 C 66.1875 -56.378906 64.519531 -52.257812 62.28125 -47.9375 C 60.050781 -43.613281 57.15625 -39.363281 53.59375 -35.1875 C 50.039062 -31.007812 45.84375 -27.125 41 -23.53125 C 36.164062 -19.9375 30.613281 -16.945312 24.34375 -14.5625 C 18.082031 -12.1875 11.066406 -10.703125 3.296875 -10.109375 L 3.296875 -29.6875 C 8.140625 -30.125 12.460938 -30.894531 16.265625 -32 C 15.609375 -34.78125 15.0625 -37.945312 14.625 -41.5 C 14.1875 -45.0625 13.96875 -49.554688 13.96875 -54.984375 C 13.96875 -60.472656 14.644531 -65.894531 16 -71.25 C 17.351562 -76.601562 19.332031 -81.441406 21.9375 -85.765625 C 24.539062 -90.085938 27.671875 -93.550781 31.328125 -96.15625 C 34.992188 -98.757812 39.140625 -100.0625 43.765625 -100.0625 C 49.484375 -100.0625 54.207031 -98.8125 57.9375 -96.3125 C 61.675781 -93.820312 64.441406 -90.359375 66.234375 -85.921875 C 68.035156 -81.492188 68.9375 -76.347656 68.9375 -70.484375 Z M 32.984375 -40.25 C 37.160156 -43.394531 40.515625 -46.816406 43.046875 -50.515625 C 45.578125 -54.222656 47.410156 -57.890625 48.546875 -61.515625 C 49.679688 -65.148438 50.25 -68.285156 50.25 -70.921875 C 50.25 -77.953125 48.085938 -81.46875 43.765625 -81.46875 C 41.710938 -81.46875 39.953125 -80.550781 38.484375 -78.71875 C 37.015625 -76.894531 35.800781 -74.515625 34.84375 -71.578125 C 33.894531 -68.648438 33.203125 -65.476562 32.765625 -62.0625 C 32.328125 -58.65625 32.109375 -55.378906 32.109375 -52.234375 C 32.109375 -49.953125 32.179688 -47.800781 32.328125 -45.78125 C 32.472656 -43.769531 32.691406 -41.925781 32.984375 -40.25 Z M 38.8125 -18.46875 C 41.96875 -11.507812 46.164062 -6.285156 51.40625 -2.796875 C 56.644531 0.679688 62.085938 2.820312 67.734375 3.625 L 67.734375 27.703125 C 63.484375 27.191406 59.101562 25.960938 54.59375 24.015625 C 50.082031 22.078125 45.753906 19.457031 41.609375 16.15625 C 37.472656 12.863281 33.695312 8.925781 30.28125 4.34375 C 26.875 -0.238281 24.070312 -5.425781 21.875 -11.21875 C 24.664062 -11.800781 26.898438 -12.457031 28.578125 -13.1875 C 30.265625 -13.925781 31.859375 -14.734375 33.359375 -15.609375 C 34.867188 -16.492188 36.6875 -17.445312 38.8125 -18.46875 Z M 38.8125 -18.46875 "/></g></g><g style="fill:#ffc107;fill-opacity:1;"><g transform="translate(285.168314, 100.771014)"><path style="stroke:none" d="M 20.234375 -58.0625 C 17.960938 -58.0625 15.890625 -58.628906 14.015625 -59.765625 C 12.148438 -60.898438 10.648438 -62.421875 9.515625 -64.328125 C 8.378906 -66.234375 7.8125 -68.320312 7.8125 -70.59375 C 7.8125 -72.9375 8.378906 -75.039062 9.515625 -76.90625 C 10.648438 -78.78125 12.148438 -80.285156 14.015625 -81.421875 C 15.890625 -82.554688 17.960938 -83.125 20.234375 -83.125 C 22.578125 -83.125 24.679688 -82.554688 26.546875 -81.421875 C 28.421875 -80.285156 29.925781 -78.78125 31.0625 -76.90625 C 32.195312 -75.039062 32.765625 -72.9375 32.765625 -70.59375 C 32.765625 -68.320312 32.195312 -66.234375 31.0625 -64.328125 C 29.925781 -62.421875 28.421875 -60.898438 26.546875 -59.765625 C 24.679688 -58.628906 22.578125 -58.0625 20.234375 -58.0625 Z M 5.390625 -6.8125 C 4.359375 -13.5625 3.894531 -20.363281 4 -27.21875 C 4.113281 -34.070312 4.613281 -41.640625 5.5 -49.921875 L 22.546875 -49.921875 C 21.734375 -41.492188 21.726562 -33.773438 22.53125 -26.765625 C 23.34375 -19.765625 24.738281 -13.113281 26.71875 -6.8125 Z M 5.390625 -6.8125 "/></g></g><g style="fill:#ffc107;fill-opacity:1;"><g transform="translate(312.984552, 100.771014)"><path style="stroke:none" d="M 46.84375 -51.125 C 51.675781 -51.125 55.410156 -49.710938 58.046875 -46.890625 C 60.691406 -44.066406 62.34375 -40.253906 63 -35.453125 C 63.664062 -30.660156 63.425781 -25.253906 62.28125 -19.234375 C 61.144531 -13.222656 59.203125 -7.007812 56.453125 -0.59375 C 53.710938 5.8125 50.289062 12.019531 46.1875 18.03125 L 23.640625 18.25 C 25.765625 15.25 27.867188 11.894531 29.953125 8.1875 C 32.046875 4.488281 33.988281 0.734375 35.78125 -3.078125 C 37.582031 -6.890625 39.066406 -10.570312 40.234375 -14.125 C 41.410156 -17.6875 42.144531 -20.894531 42.4375 -23.75 C 42.726562 -26.601562 42.4375 -28.851562 41.5625 -30.5 C 40.6875 -32.15625 39.035156 -32.984375 36.609375 -32.984375 C 32.285156 -32.984375 28.820312 -31.390625 26.21875 -28.203125 C 23.625 -25.015625 22.25 -21.035156 22.09375 -16.265625 C 22.46875 -14.066406 22.890625 -11.8125 23.359375 -9.5 C 23.835938 -7.195312 24.441406 -4.875 25.171875 -2.53125 L 8.140625 -2.53125 C 5.054688 -12.5 3.164062 -21.660156 2.46875 -30.015625 C 1.769531 -38.367188 2.453125 -46.691406 4.515625 -54.984375 L 26.828125 -54.984375 C 25.878906 -52.703125 25.035156 -50.332031 24.296875 -47.875 C 23.566406 -45.425781 22.945312 -42.921875 22.4375 -40.359375 C 24.925781 -43.648438 28.148438 -46.300781 32.109375 -48.3125 C 36.066406 -50.332031 40.976562 -51.269531 46.84375 -51.125 Z M 46.84375 -51.125 "/></g></g><g style="fill:#ffc107;fill-opacity:1;"><g transform="translate(381.370724, 100.771014)"><path style="stroke:none" d="M -12.09375 15.0625 C -12.09375 9.34375 -10.921875 4.59375 -8.578125 0.8125 C -6.234375 -2.957031 -3.046875 -5.921875 0.984375 -8.078125 C 5.015625 -10.242188 9.648438 -11.710938 14.890625 -12.484375 C 20.140625 -13.253906 25.710938 -13.488281 31.609375 -13.1875 C 37.515625 -12.894531 43.4375 -12.203125 49.375 -11.109375 C 49.519531 -12.347656 49.628906 -13.59375 49.703125 -14.84375 C 49.773438 -16.09375 49.847656 -17.410156 49.921875 -18.796875 C 49.992188 -22.609375 49.535156 -26.457031 48.546875 -30.34375 C 47.554688 -34.226562 46.144531 -37.800781 44.3125 -41.0625 C 42.476562 -44.320312 40.296875 -46.941406 37.765625 -48.921875 C 35.234375 -50.898438 32.46875 -51.890625 29.46875 -51.890625 C 26.019531 -51.890625 23.210938 -51.082031 21.046875 -49.46875 C 18.890625 -47.863281 17.8125 -45.703125 17.8125 -42.984375 C 17.8125 -40.421875 18.890625 -38.296875 21.046875 -36.609375 C 23.210938 -34.921875 26.019531 -34.078125 29.46875 -34.078125 C 31.59375 -34.078125 33.789062 -34.441406 36.0625 -35.171875 C 38.332031 -35.910156 40.566406 -36.867188 42.765625 -38.046875 C 43.867188 -35.773438 44.785156 -33.265625 45.515625 -30.515625 C 46.253906 -27.765625 46.734375 -24.957031 46.953125 -22.09375 C 44.015625 -20.925781 40.929688 -20.03125 37.703125 -19.40625 C 34.484375 -18.78125 31.554688 -18.46875 28.921875 -18.46875 C 23.273438 -18.46875 18.234375 -19.601562 13.796875 -21.875 C 9.359375 -24.15625 5.859375 -27.144531 3.296875 -30.84375 C 0.734375 -34.539062 -0.546875 -38.585938 -0.546875 -42.984375 C -0.546875 -47.390625 0.734375 -51.457031 3.296875 -55.1875 C 5.859375 -58.925781 9.359375 -61.929688 13.796875 -64.203125 C 18.234375 -66.484375 23.273438 -67.625 28.921875 -67.625 C 34.785156 -67.625 40.132812 -66.503906 44.96875 -64.265625 C 49.8125 -62.023438 53.914062 -58.5625 57.28125 -53.875 C 58.675781 -56.664062 59.738281 -59.691406 60.46875 -62.953125 C 61.207031 -66.210938 61.578125 -69.75 61.578125 -73.5625 L 85 -73.5625 C 85 -64.394531 83.3125 -56.398438 79.9375 -49.578125 C 76.5625 -42.765625 71.90625 -37.015625 65.96875 -32.328125 C 66.632812 -28.296875 66.96875 -24.046875 66.96875 -19.578125 C 66.96875 -10.921875 66.085938 -2.835938 64.328125 4.671875 C 62.566406 12.179688 59.851562 18.773438 56.1875 24.453125 C 52.519531 30.140625 47.828125 34.578125 42.109375 37.765625 C 36.390625 40.953125 29.570312 42.546875 21.65625 42.546875 C 14.695312 42.546875 8.6875 41.351562 3.625 38.96875 C -1.425781 36.59375 -5.304688 33.316406 -8.015625 29.140625 C -10.734375 24.960938 -12.09375 20.269531 -12.09375 15.0625 Z M 65.421875 13.421875 C 66.453125 10.484375 67.296875 7.457031 67.953125 4.34375 C 68.609375 1.226562 69.117188 -2.015625 69.484375 -5.390625 C 74.910156 -3.484375 80.484375 -0.972656 86.203125 2.140625 C 91.921875 5.253906 97.75 8.972656 103.6875 13.296875 L 103.6875 43.4375 C 95.769531 36.25 88.710938 30.21875 82.515625 25.34375 C 76.328125 20.46875 70.628906 16.492188 65.421875 13.421875 Z M 6.921875 13.640625 C 6.921875 16.929688 8.039062 19.65625 10.28125 21.8125 C 12.519531 23.976562 16.347656 25.0625 21.765625 25.0625 C 27.191406 25.0625 32.03125 23.175781 36.28125 19.40625 C 40.53125 15.632812 43.679688 10.816406 45.734375 4.953125 C 41.628906 3.847656 37.320312 3.078125 32.8125 2.640625 C 28.3125 2.203125 24.097656 2.21875 20.171875 2.6875 C 16.253906 3.164062 13.066406 4.285156 10.609375 6.046875 C 8.148438 7.804688 6.921875 10.335938 6.921875 13.640625 Z M 6.921875 13.640625 "/></g></g></g></g></g></svg>